HIERARCHY
ROOT Hips
{
  OFFSET 5.72205e-005 65.662 3.42586
  CHANNELS 6 Xposition Yposition Zposition Zrotation Xrotation Yrotation
  JOINT Chest
  {
    OFFSET 0 8.7983 -4.7612
    CHANNELS 6 Xposition Yposition Zposition Zrotation Xrotation Yrotation
    JOINT Chest2
    {
      OFFSET 0 8.0291 0.4195
      CHANNELS 6 Xposition Yposition Zposition Zrotation Xrotation Yrotation
      JOINT Chest3
      {
        OFFSET 0 9.9351 -2.2114
        CHANNELS 6 Xposition Yposition Zposition Zrotation Xrotation Yrotation
        JOINT Neck
        {
          OFFSET 0 22.3885 -0.4656
          CHANNELS 6 Xposition Yposition Zposition Zrotation Xrotation Yrotation
          JOINT Head
          {
            OFFSET -0.0001 12.643 3.4389
            CHANNELS 6 Xposition Yposition Zposition Zrotation Xrotation Yrotation
            End Site
            {
              OFFSET 0.0001 17.6655 0.5274
            }
          }
        }
        JOINT LeftCollar
        {
          OFFSET 2.2603 21.606 7.4023
          CHANNELS 6 Xposition Yposition Zposition Zrotation Xrotation Yrotation
          JOINT LeftShoulder
          {
            OFFSET 13.5163 -1.1332 -5.0146
            CHANNELS 6 Xposition Yposition Zposition Zrotation Xrotation Yrotation
            JOINT LeftElbow
            {
              OFFSET -0.0995 -28.05 -0.2431
              CHANNELS 6 Xposition Yposition Zposition Zrotation Xrotation Yrotation
              JOINT LeftWrist
              {
                OFFSET 0.0679 -23.3996 -0.1402
                CHANNELS 6 Xposition Yposition Zposition Zrotation Xrotation Yrotation
                JOINT LeftFinger1
                {
                  OFFSET 0.7932 -9.069 2.5189
                  CHANNELS 6 Xposition Yposition Zposition Zrotation Xrotation Yrotation
                  JOINT LeftFinger11
                  {
                    OFFSET -0.8272 -3.3923 0.5977
                    CHANNELS 6 Xposition Yposition Zposition Zrotation Xrotation Yrotation
                    JOINT LeftFinger12
                    {
                      OFFSET -0.5649 -2.3158 0.4082
                      CHANNELS 6 Xposition Yposition Zposition Zrotation Xrotation Yrotation
                      End Site
                      {
                        OFFSET -0.4919 -1.6479 0.2673
                      }
                    }
                  }
                }
                JOINT LeftFinger2
                {
                  OFFSET 0.9159 -9.2044 0.2193
                  CHANNELS 6 Xposition Yposition Zposition Zrotation Xrotation Yrotation
                  JOINT LeftFinger21
                  {
                    OFFSET 0.0117 -4.1944 -0.0248
                    CHANNELS 6 Xposition Yposition Zposition Zrotation Xrotation Yrotation
                    JOINT LeftFinger22
                    {
                      OFFSET 0.0071 -2.3249 -0.0142
                      CHANNELS 6 Xposition Yposition Zposition Zrotation Xrotation Yrotation
                      End Site
                      {
                        OFFSET -0.1475 -2.0882 0.0028
                      }
                    }
                  }
                }
                JOINT LeftFinger3
                {
                  OFFSET 0.6113 -8.7231 -2.0637
                  CHANNELS 6 Xposition Yposition Zposition Zrotation Xrotation Yrotation
                  JOINT LeftFinger31
                  {
                    OFFSET -0.1927 -3.8059 -0.2383
                    CHANNELS 6 Xposition Yposition Zposition Zrotation Xrotation Yrotation
                    JOINT LeftFinger32
                    {
                      OFFSET -0.1091 -2.1688 -0.1362
                      CHANNELS 6 Xposition Yposition Zposition Zrotation Xrotation Yrotation
                      End Site
                      {
                        OFFSET -0.2358 -1.9176 -0.0906
                      }
                    }
                  }
                }
                JOINT LeftFinger4
                {
                  OFFSET -0.6151 -8.0947 -3.5641
                  CHANNELS 6 Xposition Yposition Zposition Zrotation Xrotation Yrotation
                  JOINT LeftFinger41
                  {
                    OFFSET -0.4882 -2.341 -0.6462
                    CHANNELS 6 Xposition Yposition Zposition Zrotation Xrotation Yrotation
                    JOINT LeftFinger42
                    {
                      OFFSET -0.3575 -1.7167 -0.4742
                      CHANNELS 6 Xposition Yposition Zposition Zrotation Xrotation Yrotation
                      End Site
                      {
                        OFFSET -0.4187 -1.5237 -0.3496
                      }
                    }
                  }
                }
                JOINT LeftFinger0
                {
                  OFFSET -1.42 -1.8761 1.4223
                  CHANNELS 6 Xposition Yposition Zposition Zrotation Xrotation Yrotation
                  JOINT LeftFinger01
                  {
                    OFFSET -1.1471 -3.4929 2.6334
                    CHANNELS 6 Xposition Yposition Zposition Zrotation Xrotation Yrotation
                    JOINT LeftFinger02
                    {
                      OFFSET -0.823 -2.3 1.6571
                      CHANNELS 6 Xposition Yposition Zposition Zrotation Xrotation Yrotation
                      End Site
                      {
                        OFFSET -0.5822 -1.6914 1.1582
                      }
                    }
                  }
                }
              }
            }
          }
        }
        JOINT RightCollar
        {
          OFFSET -2.2603 21.606 7.4023
          CHANNELS 6 Xposition Yposition Zposition Zrotation Xrotation Yrotation
          JOINT RightShoulder
          {
            OFFSET -13.5187 -1.1334 -5.0155
            CHANNELS 6 Xposition Yposition Zposition Zrotation Xrotation Yrotation
            JOINT RightElbow
            {
              OFFSET 0.0994 -28.0499 -0.2431
              CHANNELS 6 Xposition Yposition Zposition Zrotation Xrotation Yrotation
              JOINT RightWrist
              {
                OFFSET -0.0679 -23.3996 -0.1402
                CHANNELS 6 Xposition Yposition Zposition Zrotation Xrotation Yrotation
                JOINT RightFinger1
                {
                  OFFSET -0.7932 -9.0691 2.5189
                  CHANNELS 6 Xposition Yposition Zposition Zrotation Xrotation Yrotation
                  JOINT RightFinger11
                  {
                    OFFSET 0.8272 -3.3923 0.5977
                    CHANNELS 6 Xposition Yposition Zposition Zrotation Xrotation Yrotation
                    JOINT RightFinger12
                    {
                      OFFSET 0.565 -2.3158 0.4082
                      CHANNELS 6 Xposition Yposition Zposition Zrotation Xrotation Yrotation
                      End Site
                      {
                        OFFSET 0.4919 -1.6479 0.2673
                      }
                    }
                  }
                }
                JOINT RightFinger2
                {
                  OFFSET -0.916 -9.2044 0.2193
                  CHANNELS 6 Xposition Yposition Zposition Zrotation Xrotation Yrotation
                  JOINT RightFinger21
                  {
                    OFFSET -0.0117 -4.1944 -0.0248
                    CHANNELS 6 Xposition Yposition Zposition Zrotation Xrotation Yrotation
                    JOINT RightFinger22
                    {
                      OFFSET -0.0071 -2.3249 -0.0142
                      CHANNELS 6 Xposition Yposition Zposition Zrotation Xrotation Yrotation
                      End Site
                      {
                        OFFSET 0.1475 -2.0882 0.0028
                      }
                    }
                  }
                }
                JOINT RightFinger3
                {
                  OFFSET -0.6113 -8.7231 -2.0637
                  CHANNELS 6 Xposition Yposition Zposition Zrotation Xrotation Yrotation
                  JOINT RightFinger31
                  {
                    OFFSET 0.1927 -3.8059 -0.2383
                    CHANNELS 6 Xposition Yposition Zposition Zrotation Xrotation Yrotation
                    JOINT RightFinger32
                    {
                      OFFSET 0.1091 -2.1688 -0.1362
                      CHANNELS 6 Xposition Yposition Zposition Zrotation Xrotation Yrotation
                      End Site
                      {
                        OFFSET 0.2358 -1.9176 -0.0906
                      }
                    }
                  }
                }
                JOINT RightFinger4
                {
                  OFFSET 0.6151 -8.0947 -3.564
                  CHANNELS 6 Xposition Yposition Zposition Zrotation Xrotation Yrotation
                  JOINT RightFinger41
                  {
                    OFFSET 0.4882 -2.341 -0.6462
                    CHANNELS 6 Xposition Yposition Zposition Zrotation Xrotation Yrotation
                    JOINT RightFinger42
                    {
                      OFFSET 0.3574 -1.7166 -0.4742
                      CHANNELS 6 Xposition Yposition Zposition Zrotation Xrotation Yrotation
                      End Site
                      {
                        OFFSET 0.4187 -1.5237 -0.3496
                      }
                    }
                  }
                }
                JOINT RightFinger0
                {
                  OFFSET 1.4199 -1.8761 1.4221
                  CHANNELS 6 Xposition Yposition Zposition Zrotation Xrotation Yrotation
                  JOINT RightFinger01
                  {
                    OFFSET 1.1472 -3.4929 2.6336
                    CHANNELS 6 Xposition Yposition Zposition Zrotation Xrotation Yrotation
                    JOINT RightFinger02
                    {
                      OFFSET 0.8229 -2.3 1.6571
                      CHANNELS 6 Xposition Yposition Zposition Zrotation Xrotation Yrotation
                      End Site
                      {
                        OFFSET 0.5822 -1.6914 1.1582
                      }
                    }
                  }
                }
              }
            }
          }
        }
      }
    }
  }
  JOINT RightHip
  {
    OFFSET -9.412 3.9771 -0.7758
    CHANNELS 6 Xposition Yposition Zposition Zrotation Xrotation Yrotation
    JOINT RightKnee
    {
      OFFSET -0.7531 -40.938 0
      CHANNELS 6 Xposition Yposition Zposition Zrotation Xrotation Yrotation
      JOINT RightAnkle
      {
        OFFSET 0 -40.1986 0
        CHANNELS 6 Xposition Yposition Zposition Zrotation Xrotation Yrotation
        JOINT RightToe
        {
          OFFSET 0 -4.4182 9.239
          CHANNELS 6 Xposition Yposition Zposition Zrotation Xrotation Yrotation
          End Site
          {
            OFFSET 0 0 6.1981
          }
        }
      }
    }
  }
  JOINT LeftHip
  {
    OFFSET 9.4119 3.9773 -0.7758
    CHANNELS 6 Xposition Yposition Zposition Zrotation Xrotation Yrotation
    JOINT LeftKnee
    {
      OFFSET 0.7532 -40.9383 0
      CHANNELS 6 Xposition Yposition Zposition Zrotation Xrotation Yrotation
      JOINT LeftAnkle
      {
        OFFSET 0 -40.1986 0
        CHANNELS 6 Xposition Yposition Zposition Zrotation Xrotation Yrotation
        JOINT LeftToe
        {
          OFFSET 0 -4.4182 9.239
          CHANNELS 6 Xposition Yposition Zposition Zrotation Xrotation Yrotation
          End Site
          {
            OFFSET 0 0 6.1981
          }
        }
      }
    }
  }
}
MOTION
Frames:	4
Frame Time:	0.0333333
5.72205e-005 65.662 3.42586 0 0 -0 0 8.7983 -4.7612 0 0 -0 0 8.0291 0.4195 0 0 -0 0 9.9351 -2.2114 0 0 -0 0 22.3885 -0.4656 0 0 -0 -0.0001 12.643 3.4389 0 0 -0 2.2603 21.606 7.4023 0 0 -12.5014 13.5163 -1.1332 -5.0146 88.1196 14.2451 10.6914 -0.0995 -28.05 -0.2431 -0.00160068 -0.00239207 0.000740045 0.0679 -23.3996 -0.1402 -8.4365e-005 7.00714e-005 -9.52055e-007 0.7932 -9.069 2.5189 9.93923e-017 -1.98785e-016 -1.59028e-015 -0.8272 -3.3923 0.5977 9.93923e-017 -5.96354e-016 -1.59028e-015 -0.5649 -2.3158 0.4082 -9.93923e-017 -5.96354e-016 -1.59028e-015 0.9159 -9.2044 0.2193 9.93923e-017 -1.98785e-016 -1.59028e-015 0.0117 -4.1944 -0.0248 -0.0128176 0.00232552 8.52707e-005 0.0071 -2.3249 -0.0142 9.93923e-017 5.96354e-016 -0 0.6113 -8.7231 -2.0637 9.93923e-017 -1.98785e-016 -1.59028e-015 -0.1927 -3.8059 -0.2383 -0.0160551 0.00299681 0.000857156 -0.1091 -2.1688 -0.1362 -2.48481e-016 0 3.18055e-015 -0.6151 -8.0947 -3.5641 9.93923e-017 -1.98785e-016 -1.59028e-015 -0.4882 -2.341 -0.6462 -0.0125865 0.0031206 0.00282719 -0.3575 -1.7167 -0.4742 0 1.98785e-016 -0 -1.42 -1.8761 1.4223 9.93923e-017 -1.98785e-016 -1.59028e-015 -1.1471 -3.4929 2.6334 9.93923e-017 -5.96354e-016 -1.59028e-015 -0.823 -2.3 1.6571 -9.93923e-017 -5.96354e-016 -1.59028e-015 -2.2603 21.606 7.4023 -0.865644 0.16582 7.03859 -13.5187 -1.1334 -5.0155 -88.0329 10.2057 -10.5567 0.0994 -28.0499 -0.2431 0.0015593 -0.00248883 -0.000788628 -0.0679 -23.3996 -0.1402 7.87605e-005 4.10553e-005 1.24965e-005 -0.7932 -9.0691 2.5189 -3.97569e-016 -7.95139e-016 3.18055e-015 0.8272 -3.3923 0.5977 -1.98785e-016 -3.97569e-016 3.18055e-015 0.565 -2.3158 0.4082 -1.98785e-016 0 3.18055e-015 -0.916 -9.2044 0.2193 -3.97569e-016 -7.95139e-016 3.18055e-015 -0.0117 -4.1944 -0.0248 0.0129473 0.00231697 -8.70038e-005 -0.0071 -2.3249 -0.0142 9.93923e-017 -7.95139e-016 1.59028e-015 -0.6113 -8.7231 -2.0637 -3.97569e-016 -7.95139e-016 3.18055e-015 0.1927 -3.8059 -0.2383 0.0163314 0.00303369 -0.000872333 0.1091 -2.1688 -0.1362 3.97569e-016 7.95139e-016 -3.18055e-015 0.6151 -8.0947 -3.564 -3.97569e-016 -7.95139e-016 3.18055e-015 0.4882 -2.341 -0.6462 0.0145763 0.00367772 -0.00326275 0.3574 -1.7166 -0.4742 9.93923e-017 -3.97569e-016 -0 1.4199 -1.8761 1.4221 -3.97569e-016 -7.95139e-016 3.18055e-015 1.1472 -3.4929 2.6336 -1.98785e-016 -3.97569e-016 3.18055e-015 0.8229 -2.3 1.6571 -1.98785e-016 0 3.18055e-015 -9.412 3.9771 -0.7758 3.42482 1.32465 -0.0626183 -0.7531 -40.938 0 0.000117508 0.717283 0.000978199 0 -40.1986 0 -3.4257 -2.04197 -0.0604716 8.88178e-016 -4.4182 9.239 6.47761e-025 0 -0 9.4119 3.9773 -0.7758 -3.42483 1.34017 0.0627307 0.7532 -40.9383 -2.22045e-016 -0.000193936 0.682302 -0.0013703 -8.88179e-016 -40.1986 0 3.42574 -2.02253 0.0595886 -8.88178e-016 -4.4182 9.239 -8.45714e-024 0 -7.40531e-025 
-29.4759 40.2623 -4.89 180 -64.4891 180 0 8.7983 -4.7612 -0.0568683 8.1165 -0.0753908 3.55272e-015 8.0291 0.4195 -0.104419 16.233 -0.144763 0 9.9351 -2.2114 -0.104419 16.2331 -0.144764 -3.55271e-015 22.3885 -0.4656 7.64438e-008 13.2992 4.05478e-007 -0.0001 12.643 3.4389 -9.86896e-009 6.6286 -1.61296e-007 2.2603 21.606 7.4023 1.06557 0.363327 -8.55286 13.5163 -1.1332 -5.0146 47.6097 23.6195 11.2162 -0.0995 -28.05 -0.2431 -5.83895 -15.8368 -27.6478 0.0679 -23.3996 -0.1402 0.884716 17.5524 -31.6834 0.7932 -9.069 2.5189 -1.19271e-015 -9.54166e-015 -0 -0.8272 -3.3923 0.5977 -2.78299e-015 -9.54166e-015 2.38542e-015 -0.5649 -2.3158 0.4082 1.59028e-015 -6.36111e-015 7.95139e-016 0.9159 -9.2044 0.2193 -1.19271e-015 -9.54166e-015 -0 0.0117 -4.1944 -0.0248 -0.0128236 0.00232328 8.68473e-005 0.0071 -2.3249 -0.0142 -8.34896e-015 0 7.95139e-016 0.6113 -8.7231 -2.0637 -1.19271e-015 -9.54166e-015 -0 -0.1927 -3.8059 -0.2383 -0.0160385 0.00299521 0.000859506 -0.1091 -2.1688 -0.1362 -7.95139e-016 -3.18055e-015 -7.95139e-016 -0.6151 -8.0947 -3.5641 -1.19271e-015 -9.54166e-015 -0 -0.4882 -2.341 -0.6462 -0.0125984 0.00312757 0.00283187 -0.3575 -1.7167 -0.4742 5.96354e-015 -3.18055e-015 -3.97569e-015 -1.42 -1.8761 1.4223 -1.19271e-015 -9.54166e-015 -0 -1.1471 -3.4929 2.6334 -2.78299e-015 -9.54166e-015 2.38542e-015 -0.823 -2.3 1.6571 1.59028e-015 -6.36111e-015 7.95139e-016 -2.2603 21.606 7.4023 -1.91839 0.587808 3.09283 -13.5187 -1.1334 -5.0155 -49.0263 20.7438 -7.11945 0.0994 -28.0499 -0.2431 5.30468 -16.4525 27.3444 -0.0679 -23.3996 -0.1402 -1.43777 16.8348 32.1219 -0.7932 -9.0691 2.5189 -3.97569e-015 -6.36111e-015 -0 0.8272 -3.3923 0.5977 3.97569e-016 -3.18055e-015 -4.77083e-015 0.565 -2.3158 0.4082 4.37326e-015 0 2.38542e-015 -0.916 -9.2044 0.2193 -3.97569e-015 -6.36111e-015 -0 -0.0117 -4.1944 -0.0248 0.0129338 0.00231305 -8.57756e-005 -0.0071 -2.3249 -0.0142 4.43205e-006 5.45308e-006 7.26336e-007 -0.6113 -8.7231 -2.0637 -3.97569e-015 -6.36111e-015 -0 0.1927 -3.8059 -0.2383 0.0163913 0.00304876 -0.000878656 0.1091 -2.1688 -0.1362 -5.6309e-006 -6.61693e-006 2.32181e-006 0.6151 -8.0947 -3.564 -3.97569e-015 -6.36111e-015 -0 0.4882 -2.341 -0.6462 0.0145945 0.00368019 -0.00326426 0.3574 -1.7166 -0.4742 3.7597e-007 -1.79734e-006 7.58136e-007 1.4199 -1.8761 1.4221 -3.97569e-015 -6.36111e-015 -0 1.1472 -3.4929 2.6336 3.97569e-016 -3.18055e-015 -4.77083e-015 0.8229 -2.3 1.6571 4.37326e-015 0 2.38542e-015 -9.412 3.9771 -0.7758 -143.95 -70.2651 -156.557 -0.7531 -40.938 7.10543e-015 -10.6983 31.9973 10.714 3.55271e-015 -40.1986 0 -6.00599 8.66327 -0.922181 -5.32907e-015 -4.4182 9.239 -1.98785e-015 -2.18886e-007 -3.18055e-015 9.4119 3.9773 -0.7758 120.022 -76.0602 131.681 0.7532 -40.9383 3.55271e-015 7.09783 13.7908 -1.67467 0 -40.1986 -3.55271e-015 3.99443 16.5405 -2.75576 0 -4.4182 9.239 8.39421e-007 -4.66666e-007 -1.6941e-006 
-42.7802 18.7896 -16.8338 180 -12.2851 180 1.42109e-014 8.7983 -4.7612 -0.0854726 11.8499 -0.10686 -7.10543e-015 8.0291 0.4195 -0.152864 23.7 -0.201909 0 9.9351 -2.2114 -0.152864 23.6999 -0.201908 0 22.3885 -0.4656 1.91528e-006 19.4463 4.30116e-006 -0.0001 12.643 3.4389 4.03233e-009 9.79464 1.12776e-008 2.2603 21.606 7.4023 1.82342 0.417176 -6.90202 13.5163 -1.1332 -5.0146 28.6405 26.2551 10.7511 -0.0995 -28.05 -0.2431 -8.82267 -23.2824 -40.2888 0.0679 -23.3996 -0.1402 1.53069 25.2871 -46.4533 0.7932 -9.069 2.5189 7.94503e-031 -6.36111e-015 7.15625e-015 -0.8272 -3.3923 0.5977 -1.30546e-006 1.78352e-008 -1.06749e-006 -0.5649 -2.3158 0.4082 3.18055e-015 -1.27222e-014 -2.38542e-015 0.9159 -9.2044 0.2193 7.94503e-031 -6.36111e-015 7.15625e-015 0.0117 -4.1944 -0.0248 -0.0128412 0.00232957 8.65014e-005 0.0071 -2.3249 -0.0142 1.60539e-005 -1.01394e-005 -4.30118e-006 0.6113 -8.7231 -2.0637 7.94503e-031 -6.36111e-015 7.15625e-015 -0.1927 -3.8059 -0.2383 -0.0160563 0.00298367 0.00085062 -0.1091 -2.1688 -0.1362 -3.77946e-006 4.85712e-006 2.47939e-006 -0.6151 -8.0947 -3.5641 7.94503e-031 -6.36111e-015 7.15625e-015 -0.4882 -2.341 -0.6462 -0.0125845 0.00311862 0.00281767 -0.3575 -1.7167 -0.4742 -7.95139e-015 -3.18055e-015 -3.18055e-015 -1.42 -1.8761 1.4223 7.94503e-031 -6.36111e-015 7.15625e-015 -1.1471 -3.4929 2.6334 -1.30546e-006 1.78352e-008 -1.06749e-006 -0.823 -2.3 1.6571 3.18055e-015 -1.27222e-014 -2.38542e-015 -2.2603 21.606 7.4023 -2.67926 0.669355 1.44396 -13.5187 -1.1334 -5.0155 -30.8977 24.6775 -5.18478 0.0994 -28.0499 -0.2431 8.13717 -24.1955 39.789 -0.0679 -23.3996 -0.1402 -2.24853 24.1651 47.1415 -0.7932 -9.0691 2.5189 1.59028e-015 0 -3.18055e-015 0.8272 -3.3923 0.5977 3.18055e-015 0 -1.59028e-015 0.565 -2.3158 0.4082 1.59028e-015 -6.36111e-015 1.59028e-015 -0.916 -9.2044 0.2193 1.59028e-015 0 -3.18055e-015 -0.0117 -4.1944 -0.0248 0.01294 0.00231919 -9.73225e-005 -0.0071 -2.3249 -0.0142 1.59028e-015 0 3.18055e-015 -0.6113 -8.7231 -2.0637 1.59028e-015 0 -3.18055e-015 0.1927 -3.8059 -0.2383 0.0163596 0.00304307 -0.000880859 0.1091 -2.1688 -0.1362 4.77083e-015 3.18055e-015 -2.38542e-015 0.6151 -8.0947 -3.564 1.59028e-015 0 -3.18055e-015 0.4882 -2.341 -0.6462 0.0146121 0.00369498 -0.00326917 0.3574 -1.7166 -0.4742 -1.59028e-015 6.36111e-015 -0 1.4199 -1.8761 1.4221 1.59028e-015 0 -3.18055e-015 1.1472 -3.4929 2.6336 3.18055e-015 0 -1.59028e-015 0.8229 -2.3 1.6571 1.59028e-015 -6.36111e-015 1.59028e-015 -9.412 3.9771 -0.7758 -154.816 -24.5649 -164.884 -0.7531 -40.938 -3.55271e-015 -19.3424 41.8848 18.0454 -7.10543e-015 -40.1986 0 -7.01282 14.3964 -1.25256 1.42109e-014 -4.4182 9.239 4.44615e-007 -7.45984e-007 -1.61211e-006 9.4119 3.9773 -0.7758 150.181 -35.9436 158.467 0.7532 -40.9383 7.10543e-015 10.5117 16.8641 -2.49125 0 -40.1986 -3.55271e-015 4.84962 25.5894 -4.38122 7.10543e-015 -4.4182 9.239 7.88334e-006 1.04496e-005 4.65545e-006 
-39.8221 24.2307 -14.7681 180 -23.3878 180 0 8.7983 -4.7612 -0.0812148 11.2005 -0.0991708 0 8.0291 0.4195 -0.14655 22.4011 -0.187331 -7.10543e-015 9.9351 -2.2114 -0.14655 22.4012 -0.187331 -7.10543e-015 22.3885 -0.4656 1.52669e-006 18.4422 3.29807e-006 -0.0001 12.643 3.4389 1.04504e-007 9.49811 -1.34526e-008 2.2603 21.606 7.4023 2.30708 0.164638 -7.54867 13.5163 -1.1332 -5.0146 32.3339 25.8019 11.1166 -0.0995 -28.05 -0.2431 -8.74551 -21.9657 -37.7205 0.0679 -23.3996 -0.1402 1.30801 23.8025 -42.8657 0.7932 -9.069 2.5189 1.41586e-005 -5.35519e-006 -5.44356e-006 -0.8272 -3.3923 0.5977 -1.1249e-006 -6.33304e-006 -6.36756e-006 -0.5649 -2.3158 0.4082 -1.11495e-005 1.3618e-005 8.09466e-006 0.9159 -9.2044 0.2193 1.41586e-005 -5.35519e-006 -5.44356e-006 0.0117 -4.1944 -0.0248 -0.0128236 0.0023162 8.28845e-005 0.0071 -2.3249 -0.0142 -1.23327e-006 -1.82682e-006 -1.16169e-006 0.6113 -8.7231 -2.0637 1.41586e-005 -5.35519e-006 -5.44356e-006 -0.1927 -3.8059 -0.2383 -0.0160575 0.00300015 0.000859209 -0.1091 -2.1688 -0.1362 -5.56597e-015 -1.27222e-014 1.59028e-015 -0.6151 -8.0947 -3.5641 1.41586e-005 -5.35519e-006 -5.44356e-006 -0.4882 -2.341 -0.6462 -0.0126042 0.00311439 0.00282629 -0.3575 -1.7167 -0.4742 -6.04425e-007 -2.31077e-006 -2.40064e-006 -1.42 -1.8761 1.4223 1.41586e-005 -5.35519e-006 -5.44356e-006 -1.1471 -3.4929 2.6334 -1.1249e-006 -6.33304e-006 -6.36756e-006 -0.823 -2.3 1.6571 -1.11495e-005 1.3618e-005 8.09466e-006 -2.2603 21.606 7.4023 -3.1848 0.414307 2.092 -13.5187 -1.1334 -5.0155 -34.3926 23.9692 -5.82407 0.0994 -28.0499 -0.2431 8.12245 -22.7321 37.275 -0.0679 -23.3996 -0.1402 -2.01774 22.787 43.5141 -0.7932 -9.0691 2.5189 -3.97569e-015 -9.54166e-015 -3.97569e-015 0.8272 -3.3923 0.5977 -3.97569e-015 -3.18055e-015 -3.18055e-015 0.565 -2.3158 0.4082 -2.63914e-006 2.52945e-006 -5.36797e-006 -0.916 -9.2044 0.2193 -3.97569e-015 -9.54166e-015 -3.97569e-015 -0.0117 -4.1944 -0.0248 0.0129694 0.002322 -8.79288e-005 -0.0071 -2.3249 -0.0142 1.59028e-015 -6.36111e-015 1.59028e-015 -0.6113 -8.7231 -2.0637 -3.97569e-015 -9.54166e-015 -3.97569e-015 0.1927 -3.8059 -0.2383 0.0163449 0.00303838 -0.000876371 0.1091 -2.1688 -0.1362 -1.20259e-006 9.64239e-007 -1.19038e-006 0.6151 -8.0947 -3.564 -3.97569e-015 -9.54166e-015 -3.97569e-015 0.4882 -2.341 -0.6462 0.0145372 0.00368003 -0.00325955 0.3574 -1.7166 -0.4742 -1.20257e-006 -3.99979e-007 -1.19039e-006 1.4199 -1.8761 1.4221 -3.97569e-015 -9.54166e-015 -3.97569e-015 1.1472 -3.4929 2.6336 -3.97569e-015 -3.18055e-015 -3.18055e-015 0.8229 -2.3 1.6571 -2.63914e-006 2.52945e-006 -5.36797e-006 -9.412 3.9771 -0.7758 -153.421 -35.2968 -164.768 -0.7531 -40.938 -3.55271e-015 -16.8297 39.1499 15.9572 -3.55271e-015 -40.1986 0 -6.93788 13.5247 -0.884842 7.10543e-015 -4.4182 9.239 1.98068e-006 2.64195e-006 2.03639e-006 9.4119 3.9773 -0.7758 147.517 -45.9881 157.257 0.7532 -40.9383 3.55271e-015 9.68451 15.0015 -2.20684 0 -40.1986 1.77636e-015 4.714 24.1674 -4.31717 0 -4.4182 9.239 -1.65415e-006 6.31108e-006 -5.03626e-006 
